<svg width="15" height="11" viewBox="0 0 15 11" fill="none" xmlns="http://www.w3.org/2000/svg">
<path d="M13.6074 0C14.3184 0 14.9199 0.601562 14.9199 1.3125V9.1875C14.9199 9.92578 14.3184 10.5 13.6074 10.5H2.23242C1.49414 10.5 0.919922 9.92578 0.919922 9.1875V1.3125C0.919922 0.601562 1.49414 0 2.23242 0H13.6074ZM13.6074 1.3125H2.23242V2.43359C2.83398 2.95312 3.81836 3.71875 5.89648 5.35938C6.36133 5.71484 7.26367 6.58984 7.91992 6.5625C8.54883 6.58984 9.45117 5.71484 9.91602 5.35938C11.9941 3.71875 12.9785 2.95312 13.6074 2.43359V1.3125ZM2.23242 9.1875H13.6074V4.12891C12.9785 4.62109 12.0762 5.33203 10.7363 6.39844C10.1074 6.86328 9.06836 7.90234 7.91992 7.875C6.74414 7.90234 5.67773 6.86328 5.07617 6.39844C3.73633 5.33203 2.83398 4.62109 2.23242 4.12891V9.1875Z" fill="white"/>
</svg>
