<svg width="12" height="12" viewBox="0 0 12 12" fill="none" xmlns="http://www.w3.org/2000/svg">
<path d="M6.25 3.30469C7.72656 3.30469 8.94531 4.52344 8.94531 6C8.94531 7.5 7.72656 8.69531 6.25 8.69531C4.75 8.69531 3.55469 7.5 3.55469 6C3.55469 4.52344 4.75 3.30469 6.25 3.30469ZM6.25 7.75781C7.21094 7.75781 7.98438 6.98438 7.98438 6C7.98438 5.03906 7.21094 4.26562 6.25 4.26562C5.26562 4.26562 4.49219 5.03906 4.49219 6C4.49219 6.98438 5.28906 7.75781 6.25 7.75781ZM9.67188 3.21094C9.67188 3.5625 9.39062 3.84375 9.03906 3.84375C8.6875 3.84375 8.40625 3.5625 8.40625 3.21094C8.40625 2.85938 8.6875 2.57812 9.03906 2.57812C9.39062 2.57812 9.67188 2.85938 9.67188 3.21094ZM11.4531 3.84375C11.5 4.71094 11.5 7.3125 11.4531 8.17969C11.4062 9.02344 11.2188 9.75 10.6094 10.3828C10 10.9922 9.25 11.1797 8.40625 11.2266C7.53906 11.2734 4.9375 11.2734 4.07031 11.2266C3.22656 11.1797 2.5 10.9922 1.86719 10.3828C1.25781 9.75 1.07031 9.02344 1.02344 8.17969C0.976562 7.3125 0.976562 4.71094 1.02344 3.84375C1.07031 3 1.25781 2.25 1.86719 1.64062C2.5 1.03125 3.22656 0.84375 4.07031 0.796875C4.9375 0.75 7.53906 0.75 8.40625 0.796875C9.25 0.84375 10 1.03125 10.6094 1.64062C11.2188 2.25 11.4062 3 11.4531 3.84375ZM10.3281 9.09375C10.6094 8.41406 10.5391 6.77344 10.5391 6C10.5391 5.25 10.6094 3.60938 10.3281 2.90625C10.1406 2.46094 9.78906 2.08594 9.34375 1.92188C8.64062 1.64062 7 1.71094 6.25 1.71094C5.47656 1.71094 3.83594 1.64062 3.15625 1.92188C2.6875 2.10938 2.33594 2.46094 2.14844 2.90625C1.86719 3.60938 1.9375 5.25 1.9375 6C1.9375 6.77344 1.86719 8.41406 2.14844 9.09375C2.33594 9.5625 2.6875 9.91406 3.15625 10.1016C3.83594 10.3828 5.47656 10.3125 6.25 10.3125C7 10.3125 8.64062 10.3828 9.34375 10.1016C9.78906 9.91406 10.1641 9.5625 10.3281 9.09375Z" fill="white"/>
</svg>
