<svg width="87" height="23" viewBox="0 0 87 23" fill="none" xmlns="http://www.w3.org/2000/svg">
<path d="M3.83 0.999999H9.56L6.83 17.05H15.08L14.21 22H0.23L3.83 0.999999ZM22.0665 11.5C21.9665 12.24 21.9565 12.95 22.0365 13.63C22.1365 14.31 22.3465 14.92 22.6665 15.46C23.0065 16 23.4565 16.43 24.0165 16.75C24.5765 17.07 25.2565 17.23 26.0565 17.23C26.8965 17.25 27.6665 17.11 28.3665 16.81C29.0665 16.51 29.6965 16.1 30.2565 15.58C30.8165 15.04 31.2765 14.42 31.6365 13.72C31.9965 13.02 32.2465 12.28 32.3865 11.5C32.4865 10.76 32.4865 10.05 32.3865 9.37C32.3065 8.67 32.1065 8.05 31.7865 7.51C31.4665 6.97 31.0265 6.54 30.4665 6.22C29.9065 5.9 29.2065 5.74 28.3665 5.74C27.5465 5.74 26.7765 5.89 26.0565 6.19C25.3565 6.47 24.7265 6.88 24.1665 7.42C23.6265 7.96 23.1765 8.58 22.8165 9.28C22.4565 9.96 22.2065 10.7 22.0665 11.5ZM16.0065 11.5C16.2465 9.9 16.7465 8.43 17.5065 7.09C18.2865 5.75 19.2565 4.59 20.4165 3.61C21.5765 2.61 22.8765 1.84 24.3165 1.3C25.7765 0.739998 27.3165 0.459998 28.9365 0.459998C30.5365 0.459998 31.9665 0.749999 33.2265 1.33C34.5065 1.89 35.5665 2.68 36.4065 3.7C37.2665 4.7 37.8665 5.87 38.2065 7.21C38.5665 8.53 38.6465 9.96 38.4465 11.5C38.2065 13.08 37.7065 14.56 36.9465 15.94C36.2065 17.3 35.2565 18.49 34.0965 19.51C32.9365 20.53 31.6165 21.33 30.1365 21.91C28.6765 22.49 27.1165 22.78 25.4565 22.78C23.8365 22.78 22.3865 22.48 21.1065 21.88C19.8265 21.28 18.7665 20.46 17.9265 19.42C17.1065 18.38 16.5265 17.18 16.1865 15.82C15.8465 14.46 15.7865 13.02 16.0065 11.5ZM51.0964 14.59L51.8464 10.27H62.4064C62.2464 11.95 61.8664 13.54 61.2664 15.04C60.6664 16.54 59.8364 17.87 58.7764 19.03C57.7364 20.19 56.4764 21.11 54.9964 21.79C53.5364 22.45 51.8664 22.78 49.9864 22.78C48.3464 22.78 46.8664 22.49 45.5464 21.91C44.2464 21.33 43.1564 20.53 42.2764 19.51C41.3964 18.47 40.7664 17.27 40.3864 15.91C40.0264 14.53 39.9564 13.06 40.1764 11.5C40.4364 9.88 40.9564 8.4 41.7364 7.06C42.5364 5.7 43.5364 4.53 44.7364 3.55C45.9364 2.57 47.2864 1.81 48.7864 1.27C50.3064 0.729998 51.9064 0.459998 53.5864 0.459998C55.6464 0.459998 57.3864 0.939999 58.8064 1.9C60.2464 2.84 61.4164 4.08 62.3164 5.62L56.8264 8.11C56.4864 7.35 56.0164 6.72 55.4164 6.22C54.8364 5.7 54.0464 5.44 53.0464 5.44C52.2064 5.44 51.3964 5.59 50.6164 5.89C49.8564 6.19 49.1664 6.61 48.5464 7.15C47.9464 7.69 47.4364 8.33 47.0164 9.07C46.5964 9.81 46.3164 10.62 46.1764 11.5C46.0364 12.34 46.0264 13.14 46.1464 13.9C46.2664 14.64 46.5064 15.31 46.8664 15.91C47.2464 16.49 47.7464 16.95 48.3664 17.29C49.0064 17.61 49.7564 17.77 50.6164 17.77C51.2964 17.77 51.8964 17.7 52.4164 17.56C52.9564 17.4 53.4364 17.19 53.8564 16.93C54.2964 16.65 54.6864 16.31 55.0264 15.91C55.3664 15.51 55.6664 15.07 55.9264 14.59H51.0964ZM70.2598 11.5C70.1598 12.24 70.1498 12.95 70.2298 13.63C70.3298 14.31 70.5398 14.92 70.8598 15.46C71.1998 16 71.6498 16.43 72.2098 16.75C72.7698 17.07 73.4498 17.23 74.2498 17.23C75.0898 17.25 75.8598 17.11 76.5598 16.81C77.2598 16.51 77.8898 16.1 78.4498 15.58C79.0098 15.04 79.4698 14.42 79.8298 13.72C80.1898 13.02 80.4398 12.28 80.5798 11.5C80.6798 10.76 80.6798 10.05 80.5798 9.37C80.4998 8.67 80.2998 8.05 79.9798 7.51C79.6598 6.97 79.2198 6.54 78.6598 6.22C78.0998 5.9 77.3998 5.74 76.5598 5.74C75.7398 5.74 74.9698 5.89 74.2498 6.19C73.5498 6.47 72.9198 6.88 72.3598 7.42C71.8198 7.96 71.3698 8.58 71.0098 9.28C70.6498 9.96 70.3998 10.7 70.2598 11.5ZM64.1998 11.5C64.4398 9.9 64.9398 8.43 65.6998 7.09C66.4798 5.75 67.4498 4.59 68.6098 3.61C69.7698 2.61 71.0698 1.84 72.5098 1.3C73.9698 0.739998 75.5098 0.459998 77.1298 0.459998C78.7298 0.459998 80.1598 0.749999 81.4198 1.33C82.6998 1.89 83.7598 2.68 84.5998 3.7C85.4598 4.7 86.0598 5.87 86.3998 7.21C86.7598 8.53 86.8398 9.96 86.6398 11.5C86.3998 13.08 85.8998 14.56 85.1398 15.94C84.3998 17.3 83.4498 18.49 82.2898 19.51C81.1298 20.53 79.8098 21.33 78.3298 21.91C76.8698 22.49 75.3098 22.78 73.6498 22.78C72.0298 22.78 70.5798 22.48 69.2998 21.88C68.0198 21.28 66.9598 20.46 66.1198 19.42C65.2998 18.38 64.7198 17.18 64.3798 15.82C64.0398 14.46 63.9798 13.02 64.1998 11.5Z" fill="white"/>
</svg>
