<svg width="14" height="15" viewBox="0 0 14 15" fill="none" xmlns="http://www.w3.org/2000/svg">
<path d="M13.5898 10.1484C13.8086 10.2578 13.9727 10.5039 13.9727 10.7773C13.9727 10.8047 13.9727 10.8594 13.9727 10.9141L13.3164 13.7578C13.2344 14.0586 12.9883 14.25 12.6875 14.25C5.66016 14.25 0 8.58984 0 1.5625C0 1.26172 0.191406 1.01562 0.492188 0.933594L3.33594 0.277344C3.39062 0.277344 3.44531 0.25 3.47266 0.25C3.74609 0.25 3.99219 0.414062 4.10156 0.660156L5.41406 3.72266C5.44141 3.80469 5.46875 3.88672 5.46875 3.96875C5.46875 4.1875 5.35938 4.37891 5.22266 4.48828L3.55469 5.85547C4.56641 7.98828 6.26172 9.68359 8.39453 10.6953L9.76172 9.02734C9.87109 8.89062 10.0625 8.78125 10.2539 8.78125C10.3633 8.78125 10.4453 8.80859 10.5273 8.83594L13.5898 10.1484Z" fill="white"/>
</svg>
