<svg width="12" height="10" viewBox="0 0 12 10" fill="none" xmlns="http://www.w3.org/2000/svg">
<path d="M10.7578 2.5625C10.7578 2.67969 10.7578 2.77344 10.7578 2.89062C10.7578 6.14844 8.29688 9.875 3.77344 9.875C2.36719 9.875 1.07812 9.47656 0 8.77344C0.1875 8.79688 0.375 8.82031 0.585938 8.82031C1.73438 8.82031 2.78906 8.42188 3.63281 7.76562C2.55469 7.74219 1.64062 7.03906 1.33594 6.05469C1.5 6.07812 1.64062 6.10156 1.80469 6.10156C2.01562 6.10156 2.25 6.05469 2.4375 6.00781C1.3125 5.77344 0.46875 4.78906 0.46875 3.59375V3.57031C0.796875 3.75781 1.19531 3.85156 1.59375 3.875C0.914062 3.42969 0.492188 2.67969 0.492188 1.83594C0.492188 1.36719 0.609375 0.945312 0.820312 0.59375C2.03906 2.07031 3.86719 3.05469 5.90625 3.17188C5.85938 2.98438 5.83594 2.79688 5.83594 2.60938C5.83594 1.25 6.9375 0.148438 8.29688 0.148438C9 0.148438 9.63281 0.429688 10.1016 0.921875C10.6406 0.804688 11.1797 0.59375 11.6484 0.3125C11.4609 0.898438 11.0859 1.36719 10.5703 1.67188C11.0625 1.625 11.5547 1.48438 11.9766 1.29688C11.6484 1.78906 11.2266 2.21094 10.7578 2.5625Z" fill="white"/>
</svg>
