<svg width="12" height="12" viewBox="0 0 12 12" fill="none" xmlns="http://www.w3.org/2000/svg">
<path d="M1.42969 3.98438L3.82031 10.5C2.15625 9.67969 1.00781 7.99219 1.00781 6C1.00781 5.29688 1.14844 4.59375 1.42969 3.98438ZM9.35156 5.76562C9.35156 6.1875 9.1875 6.67969 8.97656 7.35938L8.48438 9.02344L6.67969 3.67969C6.98438 3.65625 7.24219 3.63281 7.24219 3.63281C7.52344 3.58594 7.47656 3.1875 7.21875 3.21094C7.21875 3.21094 6.39844 3.28125 5.88281 3.28125C5.39062 3.28125 4.57031 3.21094 4.57031 3.21094C4.3125 3.1875 4.26562 3.60938 4.54688 3.63281C4.54688 3.63281 4.80469 3.65625 5.0625 3.67969L5.83594 5.78906L4.75781 9.07031L2.92969 3.67969C3.23438 3.65625 3.51562 3.63281 3.51562 3.63281C3.77344 3.58594 3.75 3.1875 3.46875 3.21094C3.46875 3.21094 2.67188 3.28125 2.13281 3.28125C2.03906 3.28125 1.94531 3.28125 1.82812 3.28125C2.71875 1.92188 4.24219 1.03125 6 1.03125C7.28906 1.03125 8.46094 1.52344 9.35156 2.34375C9.32812 2.32031 9.30469 2.32031 9.28125 2.32031C8.8125 2.32031 8.46094 2.76562 8.46094 3.21094C8.46094 3.63281 8.69531 3.98438 8.95312 4.38281C9.14062 4.71094 9.35156 5.13281 9.35156 5.76562ZM6.07031 6.44531L7.61719 10.6406C7.61719 10.6641 7.64062 10.6875 7.64062 10.7109C7.125 10.8984 6.5625 10.9922 6 10.9922C5.50781 10.9922 5.03906 10.9219 4.57031 10.8047L6.07031 6.44531ZM10.3594 3.60938C10.7578 4.33594 10.9688 5.13281 10.9688 6C10.9688 7.85156 9.98438 9.44531 8.48438 10.3125L10.0078 5.90625C10.3125 5.20312 10.4062 4.64062 10.4062 4.125C10.4062 3.9375 10.3828 3.77344 10.3594 3.60938ZM11.8125 6C11.8125 9.21094 9.1875 11.8125 6 11.8125C2.78906 11.8125 0.1875 9.21094 0.1875 6C0.1875 2.8125 2.78906 0.1875 6 0.1875C9.1875 0.1875 11.8125 2.8125 11.8125 6ZM11.5312 6C11.5312 2.95312 9.04688 0.46875 6 0.46875C2.92969 0.46875 0.445312 2.95312 0.445312 6C0.445312 9.07031 2.92969 11.5547 6 11.5547C9.04688 11.5547 11.5312 9.07031 11.5312 6Z" fill="white"/>
</svg>
